<svg
        width="163"
        height="109"
        viewBox="0 0 163 109"
        fill="none"
        xmlns="http://www.w3.org/2000/svg"
        class="emptyState"
>
    <g clip-path="url(#clip0_1857_23561)">
        <path
                d="M104.048 33.8223H109.21C109.014 32.3478 109.504 31.1143 110.679 30.1218C112.029 29.015 113.631 29.2631 114.491 29.645C115.352 30.0269 115.991 30.5516 116.434 31.5417C116.622 31.9586 116.749 32.3113 116.817 32.5998"
                stroke="#C2E8FF"
                stroke-width="1.63"
                stroke-linecap="round"
        />
        <path
                d="M114.643 34.6372C114.93 33.6446 115.519 32.9956 116.409 32.6903C117.745 32.2322 119.012 32.8422 119.518 33.456C120.024 34.0698 120.184 34.5628 120.279 35.0774C120.343 35.4204 120.366 35.817 120.348 36.2672C121.474 36.2214 122.228 36.4478 122.612 36.9464C123.076 37.5423 123.123 38.2552 122.954 38.7801C122.785 39.3051 122.221 40.0706 121.163 40.0706H99.7017"
                stroke="#C2E8FF"
                stroke-width="1.63"
                stroke-linecap="round"
        />
        <path d="M96.9849 36.5391H114.643" stroke="#C2E8FF" stroke-width="1.63" stroke-linecap="round" />
        <path d="M92.095 36.5391H94.2683" stroke="#C2E8FF" stroke-width="1.63" stroke-linecap="round" />
        <path
                fill-rule="evenodd"
                clip-rule="evenodd"
                d="M79.3164 87.7388C78.573 85.9865 76.8667 84.7609 74.8806 84.7609C74.3334 84.7609 73.8074 84.8539 73.317 85.0253C72.386 83.5839 70.7875 82.6329 68.9718 82.6329C67.2352 82.6329 65.6972 83.5028 64.752 84.8398C64.3739 84.6156 63.9347 84.4872 63.4662 84.4872C62.0561 84.4872 62.6685 84.5856 62.3247 84.7605C61.396 82.3388 59.0902 80.624 56.3927 80.624C53.9159 80.624 51.7693 82.0697 50.7158 84.1809C50.093 83.8818 49.3976 83.7146 48.664 83.7146C46.3022 83.7146 44.336 85.4477 43.9143 87.7388H79.3164Z"
                fill="#C2E8FF"
        />
        <path d="M41.0217 87.3408H76.3384" stroke="#C2E8FF" stroke-width="1.63" stroke-linecap="round" />
        <path
                fill-rule="evenodd"
                clip-rule="evenodd"
                d="M131.954 87.7482H87.04C87.0221 87.5481 87.0129 87.3455 87.0129 87.1407C87.0129 83.4743 89.9433 80.5021 93.5581 80.5021C94.5515 80.5021 95.4931 80.7266 96.3365 81.1282C97.7631 78.2939 100.67 76.353 104.024 76.353C107.677 76.353 110.799 78.6551 112.057 81.9062C112.523 81.6714 113.047 81.5394 113.603 81.5394C114.237 81.5394 114.832 81.7117 115.344 82.0128C116.624 80.2179 118.707 79.0499 121.058 79.0499C124.515 79.0499 127.39 81.573 127.99 84.9016C128.167 84.8733 128.349 84.8587 128.534 84.8587C130.24 84.8587 131.659 86.1046 131.954 87.7482Z"
                fill="#C2E8FF"
        />
        <path d="M95.8982 87.3408H134.203" stroke="#C2E8FF" stroke-width="1.63" stroke-linecap="round" />
        <path d="M38.8484 87.3408H138.007" stroke="#8CD3F8" stroke-width="1.63" stroke-linecap="round" />
        <path d="M31.5134 87.3408H36.9468" stroke="#8CD3F8" stroke-width="1.63" stroke-linecap="round" />
        <path
                fill-rule="evenodd"
                clip-rule="evenodd"
                d="M123.723 71.0285L127.618 84.473C127.701 84.7613 127.535 85.0626 127.247 85.1461C127.198 85.1604 127.147 85.1676 127.096 85.1676H119.306C119.005 85.1676 118.762 84.9243 118.762 84.6242C118.762 84.5731 118.769 84.5222 118.784 84.473L122.679 71.0285C122.762 70.7403 123.064 70.5743 123.352 70.6578C123.531 70.7097 123.671 70.8496 123.723 71.0285Z"
                fill="#C2E8FF"
        />
        <path
                fill-rule="evenodd"
                clip-rule="evenodd"
                d="M123.201 70.5854L127.819 85.1674H118.583L123.201 70.5854Z"
                stroke="#8CD3F8"
                stroke-width="1.63"
                stroke-linecap="round"
                stroke-linejoin="round"
        />
        <path
                fill-rule="evenodd"
                clip-rule="evenodd"
                d="M123.201 71.7729C123.201 82.1915 123.201 87.5165 123.201 87.7482C123.201 87.5165 123.201 82.1915 123.201 71.7729Z"
                stroke="#8CD3F8"
                stroke-width="1.63"
                stroke-linecap="round"
        />
        <path
                fill-rule="evenodd"
                clip-rule="evenodd"
                d="M125.374 78.4639C123.925 80.2192 123.201 81.1247 123.201 81.1805C123.201 81.1247 123.925 80.2192 125.374 78.4639Z"
                stroke="#8CD3F8"
                stroke-width="1.63"
                stroke-linecap="round"
                stroke-linejoin="round"
        />
        <path
                fill-rule="evenodd"
                clip-rule="evenodd"
                d="M114.004 61.5327L120.859 84.4688C120.945 84.7563 120.781 85.059 120.494 85.145C120.443 85.1601 120.391 85.1677 120.338 85.1677H107.671C107.37 85.1677 107.127 84.9245 107.127 84.6244C107.127 84.5717 107.135 84.5193 107.15 84.4688L114.004 61.5327Z"
                fill="#C2E8FF"
        />
        <path
                fill-rule="evenodd"
                clip-rule="evenodd"
                d="M113.964 61.5327L121.028 85.1677H106.901L113.964 61.5327Z"
                stroke="#8CD3F8"
                stroke-width="1.63"
                stroke-linecap="round"
                stroke-linejoin="round"
        />
        <path
                fill-rule="evenodd"
                clip-rule="evenodd"
                d="M113.964 62.5068C113.964 78.9263 113.964 87.3401 113.964 87.7484C113.964 87.3401 113.964 78.9263 113.964 62.5068Z"
                stroke="#8CD3F8"
                stroke-width="1.63"
                stroke-linecap="round"
        />
        <path
                fill-rule="evenodd"
                clip-rule="evenodd"
                d="M111.016 72.9429C113.008 74.8659 114.004 75.862 114.004 75.9312C114.004 75.862 113.008 74.8659 111.016 72.9429Z"
                stroke="#8CD3F8"
                stroke-width="1.63"
                stroke-linecap="round"
                stroke-linejoin="round"
        />
        <path
                fill-rule="evenodd"
                clip-rule="evenodd"
                d="M114.276 80.0063C116.812 77.0393 118.079 75.5904 118.079 75.6596C118.079 75.5904 116.812 77.0393 114.276 80.0063Z"
                stroke="#8CD3F8"
                stroke-width="1.63"
                stroke-linecap="round"
                stroke-linejoin="round"
        />
        <path
                fill-rule="evenodd"
                clip-rule="evenodd"
                d="M54.7192 71.0285L58.6145 84.473C58.698 84.7613 58.532 85.0626 58.2438 85.1461C58.1947 85.1604 58.1438 85.1676 58.0926 85.1676H50.3021C50.002 85.1676 49.7588 84.9243 49.7588 84.6242C49.7588 84.5731 49.766 84.5222 49.7803 84.473L53.6755 71.0285C53.759 70.7403 54.0603 70.5743 54.3486 70.6578C54.5275 70.7097 54.6674 70.8496 54.7192 71.0285Z"
                fill="#C2E8FF"
        />
        <path
                fill-rule="evenodd"
                clip-rule="evenodd"
                d="M54.1974 70.5854L58.8158 85.1674H49.5791L54.1974 70.5854Z"
                stroke="#8CD3F8"
                stroke-width="1.63"
                stroke-linecap="round"
                stroke-linejoin="round"
        />
        <path
                fill-rule="evenodd"
                clip-rule="evenodd"
                d="M54.1975 71.6719C54.1975 81.9765 54.1975 87.2447 54.1975 87.4764C54.1975 87.2447 54.1975 81.9765 54.1975 71.6719Z"
                stroke="#8CD3F8"
                stroke-width="1.63"
        />
        <path
                fill-rule="evenodd"
                clip-rule="evenodd"
                d="M56.9141 79.2788C55.103 81.2152 54.1974 82.2113 54.1974 82.2671C54.1974 82.2113 55.103 81.2152 56.9141 79.2788Z"
                stroke="#8CD3F8"
                stroke-width="1.63"
                stroke-linecap="round"
                stroke-linejoin="round"
        />
        <path
                d="M36.5421 59.679C36.5421 59.679 39.2017 60.1409 38.5136 62.8336"
                stroke="#C2E8FF"
                stroke-width="1.63"
                stroke-linecap="round"
        />
        <path
                d="M42.3163 62.1712C42.3163 62.1712 40.315 60.3599 38.6167 62.5599"
                stroke="#C2E8FF"
                stroke-width="1.63"
                stroke-linecap="round"
        />
        <path
                d="M43.2516 69.7088C43.2516 69.7088 45.5618 68.3126 46.8091 70.7963"
                stroke="#C2E8FF"
                stroke-width="1.63"
                stroke-linecap="round"
        />
        <path
                d="M49.4479 68.0487C49.4479 68.0487 46.7491 67.9946 46.9108 70.7691"
                stroke="#C2E8FF"
                stroke-width="1.63"
                stroke-linecap="round"
        />
    </g>
    <path
            fill-rule="evenodd"
            clip-rule="evenodd"
            d="M84.8077 45.2429H79.1038C78.9961 40.6459 77.9307 36.1219 75.9755 31.96C78.3733 33.3418 80.4186 35.2601 81.9509 37.5646C83.4833 39.8691 84.4611 42.4972 84.8077 45.2429ZM64.5972 30.687V45.2429H59.5347C59.9196 38.3054 62.1104 32.8186 64.5972 30.687ZM64.5972 49.0324V63.5784C62.1301 61.437 59.9196 55.9798 59.5347 49.0324H64.5972ZM69.6597 45.2429V30.687C72.1268 32.8186 74.3571 38.3054 74.7222 45.2429H69.6597ZM58.311 31.96C56.3741 36.1296 55.3 40.6477 55.1531 45.2429H49.4294C49.7777 42.4916 50.7616 39.859 52.3031 37.5536C53.8446 35.2482 55.9015 33.3332 58.311 31.96ZM49.4294 49.664H55.163C55.2837 54.2488 56.3557 58.7586 58.311 62.9074C55.9064 61.5382 53.8526 59.6293 52.3113 57.3312C50.7701 55.033 49.7836 52.4083 49.4294 49.664Z"
            fill="white"
    />
    <path
            fill-rule="evenodd"
            clip-rule="evenodd"
            d="M67.1333 24.9932C61.3746 25.1651 55.9094 27.5736 51.8968 31.7078C47.8842 35.8419 45.6399 41.3766 45.6399 47.1379C45.6399 52.8992 47.8842 58.4338 51.8968 62.568C55.9094 66.7022 61.3746 69.1107 67.1333 69.2826H68.1201V51.7267C68.1201 50.4142 69.107 48.7662 70.4392 48.7662H89.1892C89.1892 48.0359 89.2583 47.5326 89.2583 47.1379C89.2375 41.2746 86.9005 35.657 82.7563 31.5091C78.6121 27.3612 72.9966 25.0192 67.1333 24.9932ZM84.8076 45.2432H79.1037C78.9961 40.6461 77.9306 36.1222 75.9754 31.9603C78.3733 33.342 80.4185 35.2603 81.9509 37.5649C83.4832 39.8694 84.461 42.4975 84.8076 45.2432ZM64.5971 30.6872V45.2432H59.5346C59.9195 38.3057 62.1103 32.8188 64.5971 30.6872ZM64.5971 49.0326V63.5787C62.13 61.4372 59.9195 55.98 59.5346 49.0326H64.5971ZM69.6596 45.2432V30.6872C72.1267 32.8188 74.357 38.3057 74.7221 45.2432H69.6596ZM58.3109 31.9603C56.374 36.1299 55.2999 40.648 55.153 45.2432H49.4294C49.7777 42.4918 50.7615 39.8593 52.303 37.5538C53.8445 35.2484 55.9014 33.3334 58.3109 31.9603ZM49.4294 49.6642H55.1629C55.2836 54.2491 56.3556 58.7588 58.3109 62.9076C55.9063 61.5384 53.8525 59.6295 52.3112 57.3314C50.77 55.0332 49.7835 52.4086 49.4294 49.6642Z"
            fill="#C2E8FF"
            stroke="#8CD3F8"
            stroke-width="1.63"
    />
    <path
            fill-rule="evenodd"
            clip-rule="evenodd"
            d="M101.736 52.0298H74.8642C74.045 52.0298 73.2593 52.3552 72.6801 52.9345C72.1008 53.5137 71.7754 54.2994 71.7754 55.1186V70.1186C71.7754 70.9378 72.1008 71.7235 72.6801 72.3027C73.2593 72.882 74.045 73.2074 74.8642 73.2074H101.736C102.552 73.2022 103.332 72.8745 103.907 72.2958C104.482 71.7171 104.805 70.9344 104.805 70.1186V55.1186C104.805 54.3028 104.482 53.5201 103.907 52.9414C103.332 52.3627 102.552 52.035 101.736 52.0298ZM78.476 70.1186C78.4892 69.6455 78.409 69.1745 78.24 68.7325C78.071 68.2904 77.8166 67.886 77.4912 67.5423C77.1659 67.1986 76.776 66.9225 76.3439 66.7295C75.9117 66.5366 75.4458 66.4307 74.9728 66.4179H74.8741V58.7403C75.3471 58.7534 75.8182 58.6732 76.2602 58.5043C76.7023 58.3353 77.1067 58.0808 77.4503 57.7555C77.794 57.4302 78.0702 57.0403 78.2631 56.6081C78.4561 56.176 78.5619 55.7101 78.5747 55.237V55.1877V55.0989H98.0945C98.0839 56.0508 98.4506 56.9682 99.1145 57.6506C99.7783 58.3329 100.685 58.7247 101.637 58.7403H101.736V66.4574C101.261 66.4456 100.788 66.5277 100.345 66.699C99.9012 66.8703 99.496 67.1274 99.1522 67.4556C98.8084 67.7839 98.5328 68.1767 98.3411 68.6117C98.1494 69.0466 98.0455 69.5151 98.0353 69.9903V70.0989L78.476 70.1186Z"
            fill="#C2E8FF"
            stroke="#8CD3F8"
            stroke-width="1.63"
    />
    <path
            fill-rule="evenodd"
            clip-rule="evenodd"
            d="M78.4762 70.1188C78.4894 69.6458 78.4092 69.1748 78.2402 68.7327C78.0712 68.2907 77.8168 67.8863 77.4914 67.5426C77.1661 67.1989 76.7762 66.9227 76.3441 66.7298C75.9119 66.5369 75.446 66.431 74.973 66.4182H74.8743V58.7406C75.3473 58.7537 75.8183 58.6735 76.2604 58.5045C76.7024 58.3355 77.1069 58.0811 77.4505 57.7558C77.7942 57.4304 78.0704 57.0405 78.2633 56.6084C78.4563 56.1763 78.5621 55.7104 78.5749 55.2373V55.1879V55.0991H98.0947C98.0841 56.0511 98.4508 56.9685 99.1147 57.6508C99.7785 58.3332 100.686 58.725 101.637 58.7406H101.736V66.4577C101.261 66.4459 100.788 66.528 100.345 66.6993C99.9014 66.8706 99.4962 67.1277 99.1524 67.4559C98.8086 67.7841 98.533 68.177 98.3413 68.6119C98.1496 69.0469 98.0457 69.5154 98.0354 69.9906V70.0991L78.4762 70.1188Z"
            fill="white"
            stroke="#8CD3F8"
            stroke-width="1.63"
    />
    <path
            d="M88.2952 67.5327C91.1565 67.5327 93.4761 65.2132 93.4761 62.3518C93.4761 59.4905 91.1565 57.1709 88.2952 57.1709C85.4338 57.1709 83.1143 59.4905 83.1143 62.3518C83.1143 65.2132 85.4338 67.5327 88.2952 67.5327Z"
            fill="#C2E8FF"
            stroke="#8CD3F8"
            stroke-width="1.63"
    />
    <defs>
        <clipPath id="clip0_1857_23561">
            <rect width="163" height="108.667" fill="white" />
        </clipPath>
    </defs>
</svg>